<?xml version="1.0" encoding="iso-8859-1"?>
<!-- Uploaded to: SVG Repo, www.svgrepo.com, Generator: SVG Repo Mixer Tools -->
<svg height="800px" width="800px" version="1.1" id="Layer_1" xmlns="http://www.w3.org/2000/svg" xmlns:xlink="http://www.w3.org/1999/xlink" 
	 viewBox="0 0 399.997 399.997" xml:space="preserve">
<g transform="translate(0 -1020.36)">
	<g shape-rendering="auto" image-rendering="auto" color-rendering="auto" color-interpolation="sRGB">
		<path style="fill:#29A3EC;" d="M216.397,1052.275c92.639,0,167.594,75.174,167.594,168.064
			c-0.061,44.121-17.415,86.33-48.187,117.623c-0.363,0.367-5.207,2.377-6.029,2.377h-49.594c-14.655,0-26.361,9.973-34.125,18.656
			c-7.403,8.281-18.083,13.328-29.656,13.344c-22.114,0-39.906-17.834-39.906-40.031c0-18.721,12.713-34.316,29.875-38.75
			c9.344-2.412,18.063-10.277,18.063-21.375v-3.906c0-48.604-39.355-87.969-87.875-87.969H64.275c-3.489,0-5.709-1.264-6.969-2.848
			c-1.264-1.568-1.905-3.482-0.937-6.623c0.677-2.207,1.518-4.336,2.28-6.5h77.688l23.625-48.064h-0.03l-75.407,0.721
			c30.899-39.658,78.828-64.68,131.875-64.719H216.397z"/>
		<path style="fill:#3CDEF6;" d="M216.57,1060.053c88.137,0,159.448,71.52,159.448,159.895
			c-0.058,41.979-16.569,82.135-45.845,111.908c-0.363,0.367-4.953,2.262-5.739,2.262H277.25c-13.943,0-25.08,9.488-32.466,17.748
			c-7.043,7.881-17.204,12.68-28.215,12.695c-21.04,0-37.967-16.969-37.967-38.084c0-17.811,12.096-32.65,28.423-36.867
			c8.89-2.297,17.185-9.777,17.185-20.336v-3.719c0-46.242-37.443-83.693-83.604-83.693H71.838c-3.32,0-5.43-1.217-6.63-2.709
			c-1.203-1.488-1.814-3.314-0.889-6.301c0.647-2.1,1.445-4.125,2.171-6.186h73.912l22.476-45.727h-0.029l-71.742,0.688
			c29.397-37.73,74.997-61.535,125.466-61.574H216.57z"/>
	</g>
	<path style="fill:#FFFFFF;" d="M338.488,1165.81c0,20.434-16.565,37-37,37h0c-20.434,0-37-16.566-37-37l0,0
		c0-20.434,16.565-37,37-37h0C321.923,1128.81,338.488,1145.377,338.488,1165.81L338.488,1165.81z"/>
	<g shape-rendering="auto" image-rendering="auto" color-rendering="auto" color-interpolation="sRGB">
		<g>
			<path style="fill:#5A3392;" d="M301.747,1117.812c-22.861-0.16-42.709,16.006-47.281,38.406
				c-4.572,22.4,7.386,45.004,28.469,53.846c21.083,8.84,45.603,1.52,58.375-17.438c2.478-3.662,1.518-8.637-2.143-11.115
				c-3.661-2.477-8.637-1.518-11.115,2.143c-0.008,0.012-0.015,0.023-0.023,0.035c-8.561,12.709-24.775,17.551-38.906,11.625
				c-14.131-5.926-22.065-20.893-19-35.906c3.064-15.014,16.208-25.68,31.531-25.594c15.323,0.16,28.355,10.891,31.25,25.938
				c0.828,4.34,5.019,7.188,9.359,6.359s7.188-5.02,6.359-9.359c-4.32-22.449-24.014-38.809-46.875-38.938V1117.812z"/>
			<path style="fill:#5A3392;" d="M215.997,1308.312c-13.16,0-24,10.84-24,24s10.84,24,24,24c13.16,0,24-10.84,24-24
				S229.157,1308.312,215.997,1308.312z"/>
		</g>
		<path style="fill:#FFFFFF;" d="M215.997,1324.312c4.513,0,8,3.486,8,8c0,4.512-3.487,8-8,8c-4.513,0-8-3.488-8-8
			C207.997,1327.799,211.484,1324.312,215.997,1324.312z"/>
		<g>
			<g>
				<path style="fill:#5A3392;" d="M167.272,1192.213c-3.189,0.316-5.883,2.506-6.844,5.563l-41.719,126.5l-94.719,0.16
					c-3.67-0.012-6.878,2.475-7.781,6.031l-15.938,63.875c-1.139,4.27,1.399,8.654,5.668,9.793c0.649,0.172,1.317,0.264,1.988,0.27
					h95.437c3.504,0.029,6.62-2.225,7.688-5.563l19.25-58.469h20.469v-16.063h-15.156l39.906-121.406
					c1.465-4.168-0.726-8.736-4.895-10.201c-1.076-0.379-2.219-0.521-3.355-0.422l0,0V1192.213z M175.022,1324.275v16.063h20.937
					c4.436-0.045,7.996-3.676,7.951-8.111c-0.043-4.373-3.578-7.908-7.951-7.951H175.022z M30.272,1340.338h83.125l-15.812,47.938
					H18.21L30.272,1340.338z"/>
				<path style="fill:#5A3392;" d="M15.997,1356.312v16h96v-16H15.997z"/>
				<path style="fill:#5A3392;" d="M72.216,1324.312c-3.799-0.117-7.156,2.455-8.031,6.154l-15.938,63.783
					c-1.079,4.289,1.524,8.641,5.813,9.719s8.64-1.523,9.719-5.813l0,0l15.938-63.781c1.14-4.27-1.396-8.654-5.665-9.795
					C73.452,1324.42,72.836,1324.33,72.216,1324.312z"/>
			</g>
			<path style="fill:#FFFFFF;" d="M343.133,1276.322c-2.6,0.291-4.894,1.836-6.142,4.137c-6.63,11.721-11.271,19.713-20.787,28.465
				c-3.289,2.971-3.547,8.045-0.577,11.334c2.97,3.289,8.045,3.547,11.334,0.576c0.037-0.033,0.073-0.066,0.109-0.1
				c11.275-10.369,17.2-20.59,23.858-32.361c2.265-3.793,1.026-8.705-2.768-10.971c-1.512-0.902-3.279-1.281-5.027-1.078V1276.322z"
				/>
		</g>
	</g>
	<path style="fill:#FFFFFF;" d="M359.989,1260.31c0.001,4.418-3.58,8-7.998,8.002c-0.001,0-0.001,0-0.002,0c-4.418,0-8-3.582-8-8
		v-0.002c0-4.418,3.582-8,8-8S359.989,1255.892,359.989,1260.31z"/>
	<path shape-rendering="auto" image-rendering="auto" color-rendering="auto" color-interpolation="sRGB" style="fill:#EE746C;" d="
		M134.085,1132.557l-7.812,15.719H65.21c2.455-5.193,5.116-10.256,8.063-15.125l60.812-0.607L134.085,1132.557z"/>
	<path style="fill:#EBFEFF;" d="M328.942,1162.807c0,13.209-10.709,23.918-23.918,23.918s-23.918-10.709-23.918-23.918
		c0-13.209,10.709-23.918,23.918-23.918S328.941,1149.598,328.942,1162.807z"/>
	<g shape-rendering="auto" image-rendering="auto" color-rendering="auto" color-interpolation="sRGB">
		<path style="fill:#FB9761;" d="M128.87,1136.533l-7.812,15.719H59.995c2.455-5.193,5.116-10.258,8.063-15.125l60.812-0.607
			V1136.533z"/>
		<g>
			<path style="fill:#5A3392;" d="M159.997,1116.312l-90.438,0.816l0.156,16l64.406-0.561l-7.781,15.75H47.997v16h88.281l23.719-48
				L159.997,1116.312z"/>
			<path style="fill:#5A3392;" d="M208.403,1036.312v1.313c-77.732,3.508-144.746,54.807-167.344,128.5h0.031
				c-2.342,7.631-0.839,15.666,3.688,21.313s11.725,8.875,19.5,8.875h72.312c39.912,0,71.813,31.963,71.813,72v3.875
				c0,2.287-2.414,4.979-6,5.906c-24.127,6.232-41.875,28.223-41.875,54.219c0,30.822,25.094,56,55.875,56
				c16.198,0,31.196-7.061,41.563-18.656c5.941-6.646,16.212-13.344,22.25-13.344h49.563c6.714,0,12.472-2.129,17.406-7.156
				c33.704-34.277,52.728-80.537,52.813-128.844c0-101.516-82.287-184-183.594-184H208.403L208.403,1036.312z M216.403,1052.312
				c92.639,0,167.594,75.111,167.594,168c-0.077,44.121-17.478,86.33-48.25,117.623c-0.348,0.352-5.148,2.377-5.969,2.377h-49.563
				c-14.655,0-26.392,10.002-34.156,18.686c-7.407,8.287-18.097,13.314-29.656,13.314c-22.114,0-39.875-17.805-39.875-40
				c0-18.721,12.714-34.316,29.875-38.75c9.344-2.414,18-10.279,18-21.375v-3.875c0-48.604-39.293-88-87.813-88H64.278
				c-3.492,0-5.739-1.297-7-2.875c-1.261-1.568-1.872-3.447-0.906-6.594C77.741,1101.158,142.165,1052.312,216.403,1052.312z"/>
		</g>
	</g>
</g>
</svg>