<?xml version="1.0" encoding="iso-8859-1"?>
<!-- Uploaded to: SVG Repo, www.svgrepo.com, Generator: SVG Repo Mixer Tools -->
<svg height="800px" width="800px" version="1.1" id="Layer_1" xmlns="http://www.w3.org/2000/svg" xmlns:xlink="http://www.w3.org/1999/xlink" 
	 viewBox="0 0 448 448" xml:space="preserve">
<g transform="translate(0 -1020.36)" shape-rendering="auto" image-rendering="auto" color-rendering="auto" color-interpolation="sRGB">
	<path style="fill:#5A3392;" d="M112.181,1056.36c0-12.05,9.227-21.176,20.811-26.968s26.603-9.032,43.189-9.032h16
		c16.586,0,31.634,3.24,43.218,9.032c11.584,5.792,20.782,14.918,20.782,26.968v72c0,12.049-9.198,21.178-20.782,26.969
		c-5.592,2.797-12.038,4.971-19.03,6.5c4.171,56.008,8.115,113.668,0.256,165.125c6.891,1.52,13.258,3.678,18.781,6.438
		c11.584,5.793,20.782,14.918,20.782,26.969v72c0,12.049-9.198,21.178-20.782,26.969c-11.584,5.793-26.632,9.031-43.218,9.031h-16
		c-16.586,0-31.605-3.238-43.189-9.031s-20.811-14.92-20.811-26.969v-72c0-12.049,9.227-21.176,20.811-26.969
		c5.507-2.754,11.832-4.881,18.688-6.406c-4.03-24.764-5.904-51.479-5.781-79.219l0,0c0.16-28.074,2.333-57.117,6-85.969
		c-6.933-1.52-13.315-3.689-18.875-6.469c-11.584-5.793-20.811-14.92-20.811-26.969v-72H112.181z"/>
	<g>
		<path style="fill:#EE746C;" d="M128.181,1056.36v72c0,3.463,3.307,8.326,11.968,12.658c8.659,4.33,21.594,7.342,36.032,7.342h16
			c14.438,0,27.403-3.014,36.062-7.342c8.661-4.332,11.938-9.195,11.938-12.658v-72c0-3.463-3.277-8.326-11.938-12.656
			c-8.659-4.33-21.624-7.344-36.062-7.344h-16c-14.438,0-27.373,3.015-36.032,7.344
			C131.488,1048.034,128.181,1052.897,128.181,1056.36L128.181,1056.36z"/>
		<path style="fill:#EE746C;" d="M128.181,1360.36v72c0,3.463,3.307,8.326,11.968,12.658c8.659,4.33,21.594,7.342,36.032,7.342h16
			c14.438,0,27.403-3.014,36.062-7.342c8.661-4.332,11.938-9.195,11.938-12.658v-72c0-3.463-3.277-8.326-11.938-12.656
			c-8.659-4.33-21.624-7.344-36.062-7.344h-16c-14.438,0-27.373,3.014-36.032,7.344
			C131.488,1352.034,128.181,1356.897,128.181,1360.36L128.181,1360.36z"/>
		<path style="fill:#EE746C;" d="M161.899,1247.829c-0.16,27.162,1.715,53.176,5.626,76.969c2.85-0.207,5.694-0.432,8.656-0.432h16
			c2.938,0,5.762,0.207,8.594,0.4c7.402-48.639,3.757-105.084-0.432-160.813c-2.693,0.176-5.366,0.4-8.155,0.4h-16
			c-2.896,0-5.678-0.207-8.469-0.4c-3.582,28.219-5.702,56.584-5.813,83.875H161.899z"/>
	</g>
	<g>
		<path style="fill:#FB9761;" d="M184.181,1036.361h8c14.438,0,27.403,3.015,36.062,7.344c8.661,4.329,11.938,9.194,11.938,12.655
			v72c0,3.463-3.277,8.326-11.938,12.658c-8.659,4.33-21.624,7.342-36.062,7.342h-8L184.181,1036.361L184.181,1036.361z"/>
		<path style="fill:#FB9761;" d="M184.181,1340.36h8c14.438,0,27.403,3.014,36.062,7.344c8.661,4.33,11.938,9.193,11.938,12.656v72
			c0,3.463-3.277,8.326-11.938,12.658c-8.659,4.33-21.624,7.342-36.062,7.342h-8L184.181,1340.36L184.181,1340.36z"/>
		<path style="fill:#FB9761;" d="M184.181,1164.36h8c2.789,0,5.462-0.225,8.155-0.4c4.189,55.73,7.84,112.174,0.432,160.813
			c-2.832-0.207-5.656-0.4-8.594-0.4h-8v-160L184.181,1164.36z"/>
	</g>
	<path style="fill:#5A3392;" d="M412,1324.354c12.05,0,21.177,9.227,26.969,20.811c5.792,11.584,9.031,26.604,9.031,43.189v16
		c0,16.586-3.239,31.633-9.031,43.217c-5.792,11.584-14.919,20.783-26.969,20.783h-72c-12.05,0-21.177-9.199-26.969-20.783
		c-2.797-5.592-4.971-12.039-6.5-19.031c-56.008,4.172-113.666,8.115-165.125,0.256c-1.527,6.891-3.675,13.258-6.437,18.781
		c-5.792,11.584-14.919,20.783-26.969,20.783H36c-12.05,0-21.177-9.199-26.969-20.783S0,1420.944,0,1404.36v-16
		c0-16.586,3.239-31.605,9.031-43.189S23.95,1324.36,36,1324.36h72c12.05,0,21.177,9.227,26.969,20.811
		c2.753,5.508,4.88,11.832,6.406,18.688c24.763-4.031,51.479-5.904,79.219-5.781l0,0c28.073,0.16,57.117,2.332,85.969,6
		c1.528-6.934,3.689-13.314,6.469-18.875c5.792-11.584,14.919-20.811,26.969-20.811h72V1324.354z"/>
	<g>
		<path style="fill:#29A3EC;" d="M412,1340.354h-72c-3.462,0-8.326,3.307-12.656,11.969c-4.33,8.66-7.344,21.594-7.344,36.031v16
			c0,14.438,3.014,27.402,7.344,36.063s9.194,11.938,12.656,11.938h72c3.462,0,8.326-3.277,12.656-11.938
			c4.33-8.66,7.344-21.623,7.344-36.063v-16c0-14.438-3.014-27.373-7.344-36.031C420.326,1343.663,415.462,1340.354,412,1340.354z"
			/>
		<path style="fill:#29A3EC;" d="M108,1340.354H36c-3.462,0-8.326,3.307-12.656,11.969c-4.33,8.66-7.344,21.594-7.344,36.031v16
			c0,14.438,3.014,27.402,7.344,36.063s9.194,11.938,12.656,11.938h72c3.462,0,8.326-3.277,12.656-11.938
			c4.33-8.66,7.344-21.623,7.344-36.063v-16c0-14.438-3.014-27.373-7.344-36.031C116.326,1343.663,111.462,1340.354,108,1340.354z"
			/>
		<path style="fill:#29A3EC;" d="M220.531,1374.073c-27.162-0.16-53.176,1.715-76.969,5.625c0.203,2.85,0.438,5.695,0.438,8.656v16
			c0,2.938-0.207,5.762-0.406,8.594c48.639,7.402,105.084,3.756,160.812-0.432c-0.18-2.693-0.406-5.367-0.406-8.154v-16
			c0-2.896,0.212-5.678,0.406-8.469c-28.218-3.582-56.583-5.703-83.875-5.813L220.531,1374.073z"/>
	</g>
	<g>
		<path style="fill:#3CDEF6;" d="M432,1396.354v8c0,14.438-3.014,27.402-7.344,36.063c-4.33,8.66-9.194,11.938-12.656,11.938h-72
			c-3.462,0-8.326-3.277-12.656-11.938S320,1418.794,320,1404.354v-8H432z"/>
		<path style="fill:#3CDEF6;" d="M128,1396.354v8c0,14.438-3.014,27.402-7.344,36.063c-4.33,8.66-9.194,11.938-12.656,11.938H36
			c-3.462,0-8.326-3.277-12.656-11.938S16,1418.794,16,1404.354v-8H128z"/>
		<path style="fill:#3CDEF6;" d="M304,1396.354v8c0,2.789,0.226,5.463,0.406,8.154c-55.729,4.189-112.173,7.84-160.812,0.432
			c0.2-2.832,0.406-5.656,0.406-8.594v-8h160L304,1396.354z"/>
	</g>
</g>
</svg>