<?xml version="1.0" encoding="iso-8859-1"?>
<!-- Uploaded to: SVG Repo, www.svgrepo.com, Generator: SVG Repo Mixer Tools -->
<svg height="800px" width="800px" version="1.1" id="Layer_1" xmlns="http://www.w3.org/2000/svg" xmlns:xlink="http://www.w3.org/1999/xlink" 
	 viewBox="0 0 440.037 440.037" xml:space="preserve">
<g transform="translate(0 -1020.36)" shape-rendering="auto" image-rendering="auto" color-rendering="auto" color-interpolation="sRGB">
	<g>
		<path style="fill:#29A3EC;" d="M17.112,1322.619c-5.148,0.701-9.26,4.637-10.188,9.748c-1.957,2.533-6.033,3.352-6.594,6.281
			c-1.423,7.438,1.763,16.447,9.375,21c0.19,0.16,7.037,4.447,16.125,8.875c8.859,4.313,20.427,9.932,34.125,9.938
			c14.149,0.006,24.375-7.109,30.406-10.906c6.108-3.842,9.605-5,9.625-5c0.046,0,3.549,1.152,9.656,5
			c6.038,3.805,16.236,10.906,30.375,10.906c14.141,0,24.339-7.107,30.375-10.906c6.108-3.842,9.601-5,9.625-5
			c0.046,0,3.369,1.119,9.531,5c6.038,3.805,16.235,10.906,30.375,10.906c14.141,0,24.37-7.105,30.406-10.906
			c6.108-3.842,9.602-5,9.625-5c0.034,0,3.521,1.152,9.625,5c6.039,3.805,16.267,10.906,30.406,10.906
			c14.141,0,24.339-7.107,30.375-10.906c6.107-3.842,9.602-5,9.625-5c0.046,0,3.55,1.152,9.656,5
			c6.039,3.805,16.236,10.906,30.375,10.906c13.725,0.008,25.271-5.639,34.094-9.906c9.144-4.43,16.249-8.793,16.281-8.811h0.032
			c4.823-2.967,8.341-8.143,9.281-13.281c0.943-5.152-0.207-9.977-2.531-13.969c-2.324-3.992-6.024-7.463-11.156-9.094
			s-11.53-0.703-16.313,2.344c-0.168,0.16-5.462,3.33-12.531,6.75c-3.389,1.641-7.383,3.273-10.813,4.406
			c-3.43,1.137-6.763,1.568-6.344,1.568c-0.234,0-3.635-1.088-9.656-4.875c-6.029-3.793-16.23-10.906-30.375-10.906
			c-14.14,0-24.337,7.104-30.375,10.906c-6.009,3.785-9.395,4.875-9.625,4.875c-0.234,0-3.635-1.088-9.656-4.875
			c-6.029-3.793-16.23-10.906-30.375-10.906c-14.14,0-24.337,7.104-30.375,10.906c-6.01,3.785-9.428,4.875-9.656,4.875
			c-0.222,0-3.456-1.057-9.531-4.875c-6.03-3.795-16.243-10.906-30.375-10.906c-14.141,0-24.338,7.104-30.375,10.906
			c-6.01,3.785-9.395,4.875-9.625,4.875c-0.234,0-3.634-1.088-9.656-4.875c-6.028-3.793-16.23-10.906-30.375-10.906
			c-14.141,0-24.339,7.135-30.375,10.938l0,0c-6.01,3.785-9.404,4.875-9.625,4.875c0.388,0-2.951-0.432-6.375-1.568
			c-3.424-1.119-7.41-2.766-10.781-4.406c-7.002-3.412-12.218-6.664-12.406-6.781c-3.894-2.57-8.649-3.684-13.313-3.063
			L17.112,1322.619z"/>
		<path style="fill:#3CDEF6;" d="M17.112,1276.681c-5.139,0.697-9.248,4.619-10.188,9.719c-1.957,2.531-6.033,3.35-6.594,6.281
			c-1.426,7.449,1.764,16.486,9.406,21.031c0.009,0.006-0.009,0,0,0c0.221,0.16,7.026,4.426,16.094,8.844
			c8.858,4.313,20.426,9.898,34.125,9.906c14.149,0.008,24.374-7.105,30.406-10.906c6.108-3.842,9.605-5,9.625-5
			c0.043,0,3.547,1.152,9.656,5c6.042,3.809,16.249,10.906,30.375,10.906c14.141,0,24.338-7.102,30.375-10.906
			c6.108-3.842,9.601-5,9.625-5c0.043,0,3.367,1.119,9.531,5c6.04,3.807,16.235,10.906,30.375,10.906
			c14.141,0,24.369-7.102,30.406-10.906c6.108-3.842,9.602-5,9.625-5c0.032,0,3.519,1.152,9.625,5
			c6.04,3.807,16.267,10.906,30.406,10.906c14.141,0,24.337-7.102,30.375-10.906c6.107-3.842,9.602-5,9.625-5
			c0.043,0,3.545,1.184,9.625,5c6.041,3.807,16.267,10.906,30.406,10.906c13.726,0.01,25.272-5.639,34.094-9.906
			c9.146-4.43,16.249-8.793,16.281-8.813h0.032c4.823-2.969,8.341-8.145,9.281-13.281c0.943-5.152-0.207-9.977-2.531-13.969
			c-2.324-3.992-6.024-7.43-11.156-9.063c-5.132-1.631-11.53-0.736-16.313,2.314c-0.168,0.16-5.461,3.328-12.531,6.748
			c-3.389,1.641-7.383,3.275-10.813,4.406c-3.43,1.137-6.763,1.6-6.344,1.6c-0.234,0-3.635-1.088-9.656-4.873
			c-6.03-3.793-16.232-10.938-30.375-10.938c-14.14,0-24.339,7.137-30.375,10.938c-6.008,3.785-9.395,4.873-9.625,4.873
			c-0.234,0-3.635-1.088-9.656-4.873c-6.03-3.793-16.232-10.938-30.375-10.938c-14.14,0-24.339,7.137-30.375,10.938
			c-6.009,3.785-9.428,4.873-9.656,4.873c-0.222,0-3.425-1.057-9.5-4.873c-6.029-3.795-16.262-10.938-30.406-10.938
			c-14.141,0-24.34,7.137-30.375,10.938c-6.009,3.785-9.395,4.873-9.625,4.873c-0.234,0-3.635-1.088-9.656-4.873
			c-6.03-3.793-16.231-10.938-30.375-10.938c-14.141,0-24.34,7.137-30.375,10.938c-6.009,3.785-9.404,4.873-9.625,4.873
			c0.386,0.002-2.95-0.465-6.375-1.6c-3.425-1.137-7.409-2.766-10.781-4.406c-7.127-3.473-12.625-6.906-12.625-6.906l0.219,0.16
			c-3.894-2.57-8.649-3.684-13.313-3.063L17.112,1276.681z"/>
		<path style="fill:#5A3392;" d="M10.905,1262.335c-4.383,0.564-7.479,4.574-6.915,8.955c0.32,2.488,1.787,4.682,3.964,5.926
			c0,0,6.921,4.203,15.827,8.387s19.501,8.734,30,8.738c10.467,0.004,18.401-5.135,24.921-9.094
			c6.521-3.961,11.651-6.85,16.654-6.85c5.007,0,10.133,2.889,16.654,6.85c6.521,3.961,14.456,9.094,24.921,9.094
			c10.465,0,18.401-5.135,24.921-9.094c6.521-3.961,11.649-6.85,16.654-6.85c5.007,0,10.015,2.889,16.536,6.85
			s14.457,9.094,24.921,9.094c10.465,0,18.401-5.135,24.921-9.094c6.521-3.961,11.649-6.85,16.654-6.85
			c5.001,0,10.133,2.889,16.654,6.85s14.457,9.094,24.921,9.094s18.401-5.135,24.921-9.094c6.521-3.961,11.649-6.85,16.654-6.85
			c5.007,0,10.133,2.889,16.654,6.85c6.521,3.961,14.457,9.094,24.921,9.094c10.483,0.006,21.091-4.584,30-8.738
			c8.909-4.162,15.826-8.27,15.826-8.27c3.783-2.283,5-7.201,2.717-10.984c-2.283-3.783-7.201-5-10.984-2.717
			c0,0-6.23,3.678-14.291,7.441c-8.062,3.762-18.238,7.207-23.268,7.205c-5.007,0-10.133-2.775-16.654-6.732
			c-6.521-3.961-14.457-9.094-24.921-9.094s-18.401,5.135-24.921,9.094c-6.521,3.961-11.649,6.732-16.654,6.732
			c-5.007,0-10.133-2.775-16.654-6.732c-6.521-3.961-14.457-9.094-24.921-9.094s-18.401,5.135-24.921,9.094
			c-6.521,3.961-11.649,6.732-16.654,6.732c-5.007,0-10.014-2.775-16.536-6.732c-6.521-3.961-14.456-9.094-24.921-9.094
			c-10.465,0-18.4,5.135-24.921,9.094c-6.521,3.961-11.649,6.732-16.654,6.732c-5.007,0-10.133-2.775-16.653-6.732
			c-6.521-3.961-14.456-9.094-24.921-9.094c-10.466,0-18.401,5.135-24.921,9.094c-6.521,3.961-11.651,6.734-16.654,6.732
			c-5.031-0.004-15.211-3.422-23.267-7.205c-8.056-3.785-14.291-7.559-14.291-7.559c-1.579-1.004-3.46-1.422-5.316-1.184
			L10.905,1262.335z"/>
	</g>
	<path style="fill:#5A3392;" d="M219.96,1102.298c-26.415,0-47.953,21.537-47.953,47.951s21.538,48.07,47.953,48.07
		c26.415,0,48.071-21.656,48.071-48.07S246.375,1102.298,219.96,1102.298z"/>
	<path style="fill:#EE746C;" d="M219.96,1118.242c17.768,0,32.008,14.24,32.008,32.008s-14.24,32.008-32.008,32.008
		s-31.89-14.24-31.89-32.008S202.192,1118.242,219.96,1118.242z"/>
	<g>
		<path style="fill:#5A3392;" d="M11.731,1310.29c-4.416,0.162-7.863,3.875-7.7,8.291c0.1,2.721,1.578,5.203,3.921,6.59
			c0,0,6.921,4.203,15.827,8.385c8.906,4.184,19.501,8.736,30,8.74c10.467,0.004,18.401-5.135,24.921-9.094
			c6.521-3.961,11.651-6.732,16.654-6.732c5.007,0,10.133,2.775,16.654,6.732c6.521,3.961,14.456,9.094,24.921,9.094
			c10.465,0,18.401-5.135,24.921-9.094c6.521-3.961,11.649-6.732,16.654-6.732c5.007,0,10.015,2.775,16.536,6.732
			c6.521,3.961,14.457,9.094,24.921,9.094c10.465,0,18.401-5.135,24.921-9.094c6.521-3.961,11.649-6.732,16.654-6.732
			c5.001,0,10.133,2.775,16.654,6.732c6.521,3.961,14.457,9.094,24.921,9.094s18.401-5.135,24.921-9.094
			c6.521-3.961,11.649-6.732,16.654-6.732c5.007,0,10.133,2.775,16.654,6.732c6.521,3.961,14.457,9.094,24.921,9.094
			c10.483,0.004,21.091-4.465,30-8.623c8.909-4.162,15.826-8.385,15.826-8.385c3.783-2.283,5-7.201,2.717-10.984
			c-2.283-3.783-7.201-5-10.984-2.717c0,0-6.23,3.797-14.291,7.559s-18.238,7.207-23.268,7.205c-5.007,0-10.133-2.891-16.654-6.85
			c-6.521-3.961-14.457-9.094-24.921-9.094s-18.401,5.133-24.921,9.094s-11.649,6.85-16.654,6.85c-5.007,0-10.133-2.891-16.654-6.85
			c-6.521-3.961-14.457-9.094-24.921-9.094c-10.465,0-18.401,5.133-24.921,9.094c-6.521,3.961-11.649,6.85-16.654,6.85
			c-5.007,0-10.014-2.891-16.536-6.85c-6.521-3.961-14.456-9.094-24.921-9.094c-10.465,0-18.4,5.133-24.921,9.094
			c-6.521,3.961-11.649,6.85-16.654,6.85c-5.007,0-10.133-2.891-16.653-6.85c-6.521-3.961-14.456-9.094-24.921-9.094
			c-10.466,0-18.401,5.133-24.921,9.094c-6.521,3.961-11.651,6.852-16.654,6.85c-5.031-0.002-15.211-3.537-23.267-7.322
			s-14.291-7.559-14.291-7.559c-1.346-0.83-2.907-1.24-4.487-1.184L11.731,1310.29z"/>
		<path style="fill:#5A3392;" d="M342.322,1102.298l-66.26,109.605v66.377h15.945v-61.889l64.016-105.828l-13.701-8.268
			L342.322,1102.298z"/>
		<path style="fill:#5A3392;" d="M97.716,1102.298l-13.701,8.268l64.016,105.828v61.889h15.945v-66.377L97.716,1102.3
			L97.716,1102.298z"/>
	</g>
	<path style="fill:#FB9761;" d="M221.94,1121.886c13.347,0,24.044,10.678,24.044,24s-10.698,24-24.044,24
		c-13.347,0-23.956-10.678-23.956-24S208.593,1121.886,221.94,1121.886L221.94,1121.886z"/>
</g>
</svg>