<?xml version="1.0" encoding="iso-8859-1"?>
<!-- Uploaded to: SVG Repo, www.svgrepo.com, Generator: SVG Repo Mixer Tools -->
<svg height="800px" width="800px" version="1.1" id="Layer_1" xmlns="http://www.w3.org/2000/svg" xmlns:xlink="http://www.w3.org/1999/xlink" 
	 viewBox="0 0 448.056 448.056" xml:space="preserve">
<g transform="translate(0 -1020.36)">
	<g shape-rendering="auto" image-rendering="auto" color-rendering="auto" color-interpolation="sRGB">
		<path style="fill:#FFFFFF;" d="M307.269,1039.442c39.51-7.258,77.68-1.923,100.63,21.023
			c22.951,22.951,28.282,61.238,21.024,100.748c-7.259,39.51-27.197,79.521-51.26,103.584
			c-24.062,24.063-59.432,39.709-94.606,42.992c-35.173,3.283-69.635-5.617-93.189-29.172
			c-23.554-23.555-32.457-58.016-29.174-93.189c3.284-35.174,18.93-70.662,42.992-94.725S267.759,1046.702,307.269,1039.442
			L307.269,1039.442z"/>
		<path style="fill:#EBFEFF;" d="M306.688,1046.287c37.477-6.885,73.683-1.827,95.451,19.942
			c21.77,21.768,26.827,58.084,19.942,95.563c-6.885,37.477-25.797,75.43-48.622,98.252c-22.824,22.824-56.374,37.666-89.737,40.779
			c-33.363,3.113-66.052-5.328-88.393-27.672c-22.342-22.34-30.787-55.029-27.672-88.393c3.114-33.365,17.955-67.025,40.78-89.852
			C231.261,1072.083,269.212,1053.171,306.688,1046.287L306.688,1046.287z"/>
		<path style="fill:#5A3392;" d="M126.202,1368.225c2.596,3.162,2.387,7.773-0.484,10.689l-87.106,87.109
			c-3.112,3.137-8.178,3.156-11.315,0.043c-0.014-0.014-0.029-0.029-0.043-0.043l-24.888-24.889
			c-3.137-3.111-3.157-8.178-0.045-11.314c0.015-0.016,0.03-0.029,0.045-0.045l87.107-87.109c3.12-3.098,8.155-3.098,11.274,0
			l24.888,24.889c0.212,0.191,0.414,0.395,0.605,0.607L126.202,1368.225z"/>
		<path style="fill:#EE746C;" d="M108.663,1373.239l-13.529-13.529l-75.832,75.834l13.53,13.529L108.663,1373.239z"/>
		<g>
			<path style="fill:#5A3392;" d="M336.3,1020.413c-10.56,0.192-21.301,1.344-31.969,3.312
				c-42.669,7.839-84.849,28.505-111.969,55.626c-27.12,27.119-44.001,65.717-47.625,104.531
				c-3.622,38.814,6.152,78.34,33.781,105.969c27.628,27.629,67.154,37.404,105.969,33.783c38.815-3.623,77.381-20.506,104.5-47.625
				c27.121-27.119,47.911-69.299,55.75-111.969c7.839-42.668,2.733-86.549-25.5-114.781c-14.116-14.115-32.239-22.519-52.094-26.344
				c-9.928-1.914-20.284-2.694-30.844-2.499L336.3,1020.413z M336.428,1036.443c28.479-0.48,54.257,6.822,71.469,24.032
				c22.951,22.951,28.29,61.24,21.031,100.75c-7.259,39.51-27.187,79.5-51.25,103.563c-24.062,24.063-59.451,39.717-94.625,43
				c-35.173,3.283-69.634-5.633-93.188-29.188c-23.554-23.553-32.439-58.014-29.156-93.188
				c3.284-35.174,18.906-70.656,42.969-94.719c24.063-24.064,64.084-43.992,103.594-51.251
				C317.149,1037.629,326.935,1036.606,336.428,1036.443L336.428,1036.443z"/>
			<path style="fill:#5A3392;" d="M152.308,1180.349c-4.176,0.035-7.622,3.275-7.913,7.441l-2.6,27.283
				c-3.755,39.332-13.095,77.875-27.756,114.566l-9.449,23.74c-1.636,4.105,0.365,8.758,4.47,10.395
				c1.902,0.758,4.022,0.758,5.924,0l30.944-12.402c31.988-12.811,65.411-21.557,99.567-26.102l11.457-1.535
				c4.408-0.307,7.733-4.129,7.425-8.537c-0.307-4.408-4.129-7.732-8.537-7.426c-0.341,0.023-0.681,0.07-1.017,0.137l-11.457,1.535
				c-35.471,4.723-70.126,13.863-103.346,27.164l-13.701,5.43l2.6-6.377c15.225-38.105,24.919-78.207,28.819-119.055l2.6-27.402
				c0.474-4.393-2.702-8.34-7.096-8.814c-0.311-0.033-0.624-0.049-0.936-0.045L152.308,1180.349z"/>
		</g>
		<path style="fill:#F4A763;" d="M103.714,1376.69l-12.03-12.031l-67.432,67.434l12.031,12.031L103.714,1376.69z"/>
		<path style="fill:#5A3392;" d="M367.979,1340.427c-26.415,0-47.953,21.537-47.953,47.951s21.538,47.953,47.953,47.953
			s48.071-21.539,48.071-47.953S394.394,1340.427,367.979,1340.427z"/>
		<path style="fill:#29A3EC;" d="M367.979,1356.37c17.768,0,32.008,14.24,32.008,32.008s-14.24,32.008-32.008,32.008
			s-32.007-14.24-32.007-32.008S350.211,1356.37,367.979,1356.37z"/>
		<path style="fill:#5A3392;" d="M199.871,1132.364c-2.679,0.037-5.162,1.412-6.614,3.664l-3.187,4.846
			c-9.159,13.73-14.055,29.207-14.055,44.881v2.479c0.027,4.436,3.645,8.01,8.081,7.982c4.397-0.027,7.954-3.586,7.982-7.982v-2.479
			c0-12.363,3.767-24.678,11.339-36.023l3.187-4.844c2.496-3.646,1.564-8.625-2.082-11.121c-1.368-0.938-2.993-1.426-4.65-1.398
			L199.871,1132.364z"/>
	</g>
	<path style="fill:#5A3392;" d="M192.028,1212.386c0,4.418-3.582,8-8,8s-8-3.582-8-8s3.582-8,8-8S192.028,1207.968,192.028,1212.386
		z"/>
	<path shape-rendering="auto" image-rendering="auto" color-rendering="auto" color-interpolation="sRGB" style="fill:#3CDEF6;" d="
		M361.873,1361.8c12.307,0,22.17,9.863,22.17,22.17s-9.863,22.172-22.17,22.172c-12.307,0-22.17-9.863-22.17-22.172
		C339.704,1371.663,349.567,1361.8,361.873,1361.8z"/>
</g>
</svg>