<?xml version="1.0" encoding="iso-8859-1"?>
<!-- Uploaded to: SVG Repo, www.svgrepo.com, Generator: SVG Repo Mixer Tools -->
<svg height="800px" width="800px" version="1.1" id="Layer_1" xmlns="http://www.w3.org/2000/svg" xmlns:xlink="http://www.w3.org/1999/xlink" 
	 viewBox="0 0 448.168 448.168" xml:space="preserve">
<g transform="translate(0 -1020.36)" shape-rendering="auto" image-rendering="auto" color-rendering="auto" color-interpolation="sRGB">
	<path style="fill:#5A3392;" d="M224.091,1036.18c-115.074,0-208.18,93.106-208.18,208.179c0,115.074,93.106,208.18,208.18,208.18
		s208.18-93.105,208.18-208.18C432.271,1129.285,339.165,1036.179,224.091,1036.18L224.091,1036.18z"/>
	<g>
		<path style="fill:#FFFFFF;" d="M223.813,1035.982c-31.143,0-60.588,6.968-87.133,19.145c-0.254,2.885-1.595,18.686-1.384,39.543
			c0.23,22.844,3.047,49.838,9.964,63.557c1.015,2.014,2.833,4.295,4.369,6.477c63.135-28.814,100.412-40.73,138.086-40.205
			c34.465,0.48,69.057,11.395,123.092,27.223C376.49,1083.134,305.801,1035.983,223.813,1035.982L223.813,1035.982z"/>
		<path style="fill:#EE746C;" d="M120.85,1063.919c-29.501,16.902-54.369,40.793-72.5,69.469
			c9.211,65.912,20.757,106.662,43.563,135.906c22.586,28.961,57.491,48.328,115.344,70.156
			c9.588-23.699,10.652-52.707,6.406-100.75c-4.214-2.631-16.351-10.293-32.219-22.344c-18.921-14.367-40.153-32.279-49.719-51.25
			c-9.566-18.973-11.323-46.645-11.563-70.281C120.036,1082.542,120.417,1071.804,120.85,1063.919L120.85,1063.919z"/>
		<path style="fill:#FFFFFF;" d="M287.413,1140.419c-33.128-0.48-67.066,9.986-126.313,36.781
			c8.824,9.145,19.589,18.479,30.031,26.406c16.749,12.719,29.378,20.447,31.656,21.846c2.944-0.848,16.847-4.885,37.906-9.438
			c23.159-5,50.753-9.775,71.219-8.029c20.397,1.74,46.635,11.146,68.531,19.969c14.492,5.836,24.713,10.463,31.5,13.625
			c-0.333-25.051-5.173-48.941-13.594-71.094c-61.986-17.926-97.36-29.596-130.937-30.064V1140.419z"/>
		<path style="fill:#EE746C;" d="M35.734,1155.923c-12.581,26.846-19.822,56.703-19.822,88.338
			c0,79.611,44.544,148.678,110.068,183.779c37.744-31.119,61.063-52.219,74.276-74.119
			c-58.011-21.998-95.878-42.498-121.028-74.748c-22.796-29.23-34.554-68.123-43.495-123.252V1155.923z"/>
		<g>
			<path style="fill:#29A3EC;" d="M316.319,1223.859c-15.709,0.848-35.274,4.221-52.188,7.873
				c-16.545,3.572-27.955,6.609-34.312,8.344c4.431,51.924,2.996,84.879-11.156,113.404c-13.547,27.309-38.289,49.832-76.969,81.875
				c22.193,9.578,46.435,15.193,71.844,16.469c44.717-41.854,71.555-69.783,86.844-100.938c15.32-31.215,19.881-67.338,19.563-127
				c-1.278,0-2.287-0.16-3.625,0L316.319,1223.859z"/>
			<path style="fill:#29A3EC;" d="M336.007,1224.826c0.26,59.979-4.527,98.955-21.313,133.158
				c-15.182,30.934-40.351,58.008-77.937,93.748c104.157-6.27,187.35-88.828,194.594-192.719
				c-1.716-0.848-16.676-8.201-36.813-16.311C375.316,1234.958,352.458,1227.337,336.007,1224.826L336.007,1224.826z"/>
		</g>
		<path style="fill:#5A3392;" d="M221.469,1228.347c-4.419,0.01-7.992,3.602-7.982,8.02c0.001,0.275,0.016,0.551,0.045,0.826
			c4.854,53.863,3.315,83.922-9.25,109.25s-37.345,47.613-81.188,83.656c-3.417,2.805-3.914,7.848-1.109,11.266
			s7.848,3.914,11.266,1.109c44.025-36.191,70.799-59.525,85.375-88.906s15.771-63.125,10.844-117.813
			c-0.312-4.186-3.804-7.418-8-7.406L221.469,1228.347z"/>
	</g>
	<path style="fill:#EBFEFF;" d="M229.124,1044.812c-28.395,0-55.258,6.33-79.462,17.43c-0.236,2.641-1.454,17.07-1.261,36.09
		c0.212,20.834,2.779,45.451,9.087,57.963c6.308,12.51,24.593,29.354,41.279,42.023c15.428,11.715,27.152,18.809,29.153,20.039
		c2.701-0.768,15.454-4.482,34.772-8.66c21.244-4.588,46.556-8.967,65.329-7.367c18.71,1.6,42.75,10.113,62.835,18.203
		c13.297,5.352,22.699,9.625,28.924,12.527C418.417,1128.777,333.735,1044.812,229.124,1044.812L229.124,1044.812z"/>
	<path style="fill:#FB9761;" d="M120.589,1076.466c-58.22,33.355-97.492,95.951-97.492,167.934
		c0,73.945,41.373,138.121,102.233,170.725c38.988-32.141,61.473-52.615,72.886-75.619c11.569-23.32,13.094-51.104,8.754-100.227
		c-3.932-2.438-15.319-9.598-30.103-20.822c-17.61-13.373-37.254-30.16-46.157-47.814c-8.903-17.66-10.539-43.414-10.761-65.412
		C119.828,1093.796,120.191,1083.804,120.589,1076.466L120.589,1076.466z"/>
	<path style="fill:#3CDEF6;" d="M313.772,1233.951c-14.358,0.752-32.287,3.73-47.714,7.066c-15.165,3.277-25.571,6.094-31.296,7.695
		c4.051,47.379,2.849,77.441-10.062,103.465c-12.349,24.893-34.904,45.424-70.146,74.623c23.027,9.924,48.417,15.447,75.106,15.447
		c100.341,0,182.144-77.748,189.032-176.32c-1.529-0.736-15.211-7.385-33.605-14.793c-19.446-7.834-43.353-15.85-58.374-17.131
		c-3.771-0.305-8.154-0.305-12.94,0L313.772,1233.951z"/>
	<g>
		<g>
			<path style="fill:#5A3392;" d="M287.625,1124.378c-37.782-0.527-74.975,11.461-138.75,40.656
				c-4.005,1.873-5.732,6.641-3.858,10.645c1.85,3.955,6.528,5.697,10.515,3.918c63.142-28.906,97.581-39.697,131.844-39.219
				c34.263,0.48,70.022,12.537,134.406,31.094c4.208,1.348,8.712-0.971,10.061-5.178c1.348-4.209-0.97-8.713-5.178-10.061
				c-0.157-0.051-0.316-0.096-0.476-0.137C362.091,1137.625,325.407,1124.906,287.625,1124.378z"/>
			<path style="fill:#5A3392;" d="M327.875,1212.378c-4.405,0.104-7.898,3.748-7.813,8.154c0.53,61.889-4.084,98.518-19.719,130.377
				c-15.634,31.857-43.054,60.066-89.625,103.531c-3.362,2.867-3.762,7.918-0.894,11.279c2.868,3.361,7.918,3.762,11.279,0.895
				c0.181-0.154,0.354-0.316,0.521-0.486c46.789-43.668,75.864-73.049,93.094-108.156c17.23-35.107,21.881-74.826,21.344-137.563
				c0.018-4.418-3.549-8.016-7.968-8.033C328.021,1212.376,327.948,1212.376,327.875,1212.378z"/>
			<path style="fill:#5A3392;" d="M39.656,1124.253c-4.413,0.227-7.806,3.988-7.58,8.4c0.014,0.264,0.04,0.527,0.08,0.787
				c9.387,68.219,21.202,112.518,47.094,145.719c25.891,33.199,64.867,53.898,125.938,76.656c4.142,1.545,8.752-0.561,10.297-4.703
				c1.545-4.143-0.561-8.752-4.703-10.297c-60.173-22.424-95.825-41.904-118.906-71.5c-23.081-29.598-34.578-70.699-43.844-138.031
				C47.527,1127.101,43.864,1124.027,39.656,1124.253z"/>
			<path style="fill:#5A3392;" d="M129.562,1044.347c-4.126,0.068-7.523,3.264-7.844,7.377c0,0-1.833,19.455-1.594,43.094
				s2.028,51.279,11.594,70.25c9.566,18.971,30.767,36.977,49.688,51.344s35.75,24.563,35.75,24.563
				c1.921,1.17,4.247,1.479,6.406,0.848c0,0,17.948-5.252,40.5-10.125c22.552-4.871,49.93-9.16,66.469-7.75
				c16.47,1.408,42.649,10.227,63.969,18.813c21.32,8.588,38.063,16.781,38.063,16.781c3.97,1.941,8.762,0.297,10.703-3.672
				s0.298-8.762-3.672-10.703l0,0c0,0-17.229-8.398-39.125-17.219c-21.896-8.818-48.166-18.197-68.563-19.938
				c-20.466-1.746-48.059,3.061-71.219,8.064c-21.056,4.547-34.896,8.619-37.844,9.467c-2.182-1.344-14.932-9.102-31.75-21.873
				c-18.19-13.814-38.217-32.145-45.094-45.783c-6.877-13.639-9.645-40.508-9.875-63.217c-0.23-22.711,1.531-41.438,1.531-41.438
				c0.483-4.393-2.685-8.345-7.077-8.828c-0.337-0.037-0.677-0.053-1.016-0.047L129.562,1044.347z"/>
		</g>
		<path style="fill:#5A3392;" d="M322.125,1043.816c1.266,0.023,2.508,0.347,3.625,0.944
			c83.834,42.696,132.065,133.298,120.688,226.688c-11.377,93.389-79.961,169.773-171.594,191.094s-186.88-16.941-238.313-95.719
			c-2.389-3.719-1.311-8.672,2.409-11.061c3.682-2.365,8.58-1.334,10.998,2.313c47.788,73.193,136.142,108.682,221.281,88.873
			s148.773-90.666,159.344-177.438s-34.169-170.83-112.063-210.5c-3.97-1.941-5.614-6.732-3.673-10.703
			c1.36-2.78,4.202-4.527,7.298-4.484V1043.816z"/>
		<path style="fill:#5A3392;" d="M21.312,1309.253c3.22,0.219,5.992,2.352,7.031,5.406c3.038,8.461,6.613,16.689,10.719,24.686
			c2.02,3.936,0.467,8.762-3.468,10.783c-3.935,2.02-8.762,0.467-10.782-3.469l0,0c-4.422-8.613-8.26-17.482-11.531-26.594
			c-1.563-4.133,0.52-8.75,4.653-10.314C19.011,1309.345,20.163,1309.175,21.312,1309.253z"/>
		<path style="fill:#5A3392;" d="M245.75,1021.409c4.413,0.224,7.809,3.983,7.585,8.397s-3.983,7.809-8.396,7.585
			c-0.251-0.014-0.502-0.038-0.751-0.074c-67.064-6.516-133.106,19.877-177.25,70.781C22.793,1159.003,6.059,1228.099,22,1293.566
			c1.044,4.297-1.593,8.627-5.891,9.672s-8.628-1.594-9.672-5.891c-17.163-70.486,0.909-144.941,48.438-199.748
			c47.529-54.808,118.669-83.201,190.875-76.189L245.75,1021.409z"/>
		<path style="fill:#5A3392;" d="M266.812,1024.566c0.452,0.016,0.901,0.069,1.344,0.16c12.288,2.466,24.358,5.953,36.063,10.437
			c4.134,1.579,6.205,6.211,4.625,10.345c-1.579,4.133-6.21,6.205-10.344,4.625c-10.868-4.163-22.09-7.431-33.5-9.72
			c-4.333-0.866-7.144-5.08-6.278-9.413c0.765-3.831,4.186-6.549,8.091-6.43L266.812,1024.566z"/>
	</g>
</g>
</svg>