<?xml version="1.0" encoding="iso-8859-1"?>
<!-- Uploaded to: SVG Repo, www.svgrepo.com, Generator: SVG Repo Mixer Tools -->
<svg height="800px" width="800px" version="1.1" id="Layer_1" xmlns="http://www.w3.org/2000/svg" xmlns:xlink="http://www.w3.org/1999/xlink" 
	 viewBox="0 0 384.475 384.475" xml:space="preserve">
<g transform="translate(0 -1020.36)" shape-rendering="auto" image-rendering="auto" color-rendering="auto" color-interpolation="sRGB">
	<path style="fill:#5A3392;" d="M215.763,1072.498c-1.525,0.064-3.001,0.564-4.251,1.439l-45.937,30.563h-61.407
		c-4.419-0.016-8.014,3.553-8.031,7.971c0,0.02,0,0.041,0,0.061l-0.121,77.5L61.391,1240c-0.15,0.195-0.292,0.398-0.423,0.607
		h-4.971c-0.28-0.016-0.561-0.016-0.841,0c-4.062,0.416-7.16,3.822-7.187,7.906v16.063H8.031c-4.419-0.018-8.014,3.551-8.031,7.971
		c0,0.02,0,0.041,0,0.061v47.938c-0.017,4.418,3.552,8.014,7.97,8.031c0.02,0,0.041,0,0.061,0h39.938v64.031h16.062v-64.031h255.937
		v64.031h16.063v-64.031h40.032c4.394-0.053,7.923-3.637,7.906-8.031v-47.938c0.037-4.131-3.078-7.611-7.188-8.031
		c-0.24-0.012-0.48-0.012-0.72,0H336.03v-16.063c-0.052-4.395-3.637-7.924-8.031-7.906H280.03c-0.27-0.014-0.54-0.014-0.81,0
		c-4.075,0.4-7.19,3.813-7.219,7.906v16.063H111.97v-16.063c-0.051-4.346-3.561-7.855-7.906-7.906H80.439l30.125-43.469
		c0.933-1.359,1.423-2.975,1.403-4.625l0.122-62.189l82.813,68.346c1.44,1.164,3.24,1.793,5.092,1.777h175.969
		c4.41,0.283,8.214-3.063,8.497-7.473c0.283-4.408-3.062-8.213-7.472-8.496c-0.341-0.021-0.684-0.021-1.025,0H223.118l43.594-31.873
		h109.25c4.436-0.021,8.014-3.635,7.992-8.07c-0.021-4.404-3.587-7.971-7.992-7.992H263.993c-0.23-0.01-0.46-0.01-0.689,0
		c-1.46,0.133-2.855,0.664-4.034,1.535l-59.562,43.748l-74.125-61.25h42.406c1.597-0.014,3.153-0.504,4.469-1.408l47.969-31.873
		c3.751-2.336,4.899-7.27,2.564-11.02c-1.536-2.469-4.288-3.908-7.19-3.764L215.763,1072.498z"/>
	<g>
		<path style="fill:#FFFFFF;" d="M64.013,1256.531h32v8.031h-32C64.013,1264.563,64.013,1256.531,64.013,1256.531z"/>
		<path style="fill:#FFFFFF;" d="M287.95,1256.531h32v8.031h-32V1256.531z"/>
	</g>
	<path style="fill:#5A3392;" d="M87.975,1032.588c-17.579-0.002-32.008,14.311-32.008,31.889
		c0.001,17.578,14.43,32.008,32.008,32.008c17.578-0.002,32.007-14.43,32.008-32.008
		C119.983,1046.897,105.554,1032.588,87.975,1032.588z"/>
	<path style="fill:#EE746C;" d="M87.975,1048.531c8.931,0,16.063,7.014,16.063,15.945c0,8.932-7.132,16.063-16.063,16.063
		c-8.931,0-15.945-7.131-15.945-16.063S79.044,1048.531,87.975,1048.531z"/>
	<path style="fill:#46A3D3;" d="M16.044,1312.5h351.969v-32H16.044C16.044,1280.5,16.044,1312.5,16.044,1312.5z"/>
	<path style="fill:#3CDEF6;" d="M16.044,1312.5v-16h351.969v16C368.013,1312.5,16.044,1312.5,16.044,1312.5z"/>
	<g>
		<path style="fill:#EBFEFF;" d="M80.013,1256.531h16v8.031h-16V1256.531z"/>
		<path style="fill:#EBFEFF;" d="M303.95,1256.531h16v8.031h-16V1256.531z"/>
	</g>
	<path style="fill:#FB9761;" d="M83.36,1052.695c4.463,0,8.03,3.51,8.03,7.971c0,4.465-3.562,8.031-8.03,8.031
		c-4.463,0-7.97-3.568-7.97-8.031S78.897,1052.695,83.36,1052.695z"/>
</g>
</svg>